<svg viewBox="0 0 700 320" xmlns="http://www.w3.org/2000/svg">
  <defs>
    <linearGradient id="barGrad" x1="0" y1="0" x2="0" y2="1">
      <stop offset="0%" stop-color="#8b5cf6"/>
      <stop offset="100%" stop-color="#3b82f6"/>
    </linearGradient>
  </defs>

  <line x1="40" y1="270" x2="660" y2="270" stroke="rgba(255,255,255,.15)" stroke-width="1"/>

  <g>
    <rect x="40.0"  y="243.3" width="100" height="26.7"  rx="6" fill="url(#barGrad)"/>
    <rect x="170.0" y="184.7" width="100" height="85.3"  rx="6" fill="url(#barGrad)"/>
    <rect x="300.0" y="182.0" width="100" height="88.0"  rx="6" fill="url(#barGrad)"/>
    <rect x="430.0" y="136.7" width="100" height="133.3" rx="6" fill="url(#barGrad)"/>
    <rect x="560.0" y="30.0"  width="100" height="240.0" rx="6" fill="url(#barGrad)"/>
  </g>

  <g fill="#f8fafc" font-size="16" font-weight="700" font-family="Consolas, monospace" text-anchor="middle">
    <text x="90"  y="235">100</text>
    <text x="220" y="176.7">320</text>
    <text x="350" y="174">330</text>
    <text x="480" y="128.7">500</text>
    <text x="610" y="22">900</text>
  </g>

  <g fill="#cbd5e1" font-size="15" font-family="Consolas, monospace" text-anchor="middle">
    <text x="90"  y="292">Pawn</text>
    <text x="220" y="292">Knight</text>
    <text x="350" y="292">Bishop</text>
    <text x="480" y="292">Rook</text>
    <text x="610" y="292">Queen</text>
  </g>
  <g fill="#64748b" font-size="12" font-family="Consolas, monospace" text-anchor="middle">
    <text x="90"  y="308">1.0 pawn</text>
    <text x="220" y="308">3.2 pawns</text>
    <text x="350" y="308">3.3 pawns</text>
    <text x="480" y="308">5.0 pawns</text>
    <text x="610" y="308">9.0 pawns</text>
  </g>
</svg>
